<svg width="32" height="32" viewBox="0 0 32 32" fill="none" xmlns="http://www.w3.org/2000/svg">
  <rect width="32" height="32" rx="6" fill="black"/>
  <path d="M8 24V8H13.5C15.5 8 17.0833 8.5 18.25 9.5C19.4167 10.5 20 11.8333 20 13.5C20 14.5 19.7083 15.3958 19.125 16.1875C18.5417 16.9792 17.7083 17.5833 16.625 18C17.0417 18.1667 17.4167 18.4167 17.75 18.75C18.0833 19.0833 18.4583 19.5833 18.875 20.25L21 24H17.375L15.625 20.75C15.2917 20.1667 14.9583 19.7708 14.625 19.5625C14.2917 19.3542 13.875 19.25 13.375 19.25H11.5V24H8ZM11.5 16.75H13.5C14.3333 16.75 14.9583 16.5417 15.375 16.125C15.7917 15.7083 16 15.1667 16 14.5C16 13.8333 15.7917 13.2917 15.375 12.875C14.9583 12.4583 14.3333 12.25 13.5 12.25H11.5V16.75Z" fill="white"/>
</svg>