<svg width="32" height="32" viewBox="0 0 32 32" fill="none" xmlns="http://www.w3.org/2000/svg">
  <rect width="32" height="32" rx="6" fill="black"/>
  <path d="M8 22V10H13.5C15.0913 10 16.3827 10.4087 17.374 11.226C18.374 12.034 18.874 13.1693 18.874 14.632C18.874 16.0947 18.374 17.23 17.374 18.038C16.3827 18.846 15.0913 19.25 13.5 19.25H11.1V22H8ZM11.1 16.75H13.5C14.2 16.75 14.7333 16.5833 15.1 16.25C15.4667 15.9167 15.65 15.3987 15.65 14.696C15.65 14.0027 15.4667 13.4893 15.1 13.156C14.7333 12.8133 14.2 12.642 13.5 12.642H11.1V16.75Z" fill="white"/>
</svg>